<svg width="155" height="46" viewBox="0 0 155 46" fill="none" xmlns="http://www.w3.org/2000/svg">
<path d="M14.024 4.712C13.608 4.712 13.256 4.568 12.968 4.28C12.696 3.992 12.56 3.64 12.56 3.224C12.56 2.808 12.696 2.456 12.968 2.168C13.256 1.88 13.608 1.736 14.024 1.736C14.44 1.736 14.784 1.88 15.056 2.168C15.344 2.456 15.488 2.808 15.488 3.224C15.488 3.64 15.344 3.992 15.056 4.28C14.784 4.568 14.44 4.712 14.024 4.712ZM15.104 22.856C15.104 24.024 14.808 24.88 14.216 25.424C13.624 25.968 12.76 26.24 11.624 26.24H10.352V24.392H11.264C11.872 24.392 12.296 24.272 12.536 24.032C12.792 23.792 12.92 23.384 12.92 22.808V6.848H15.104V22.856ZM30.4651 6.848V20H28.2811V18.056C27.8651 18.728 27.2811 19.256 26.5291 19.64C25.7931 20.008 24.9771 20.192 24.0811 20.192C23.0571 20.192 22.1371 19.984 21.3211 19.568C20.5051 19.136 19.8571 18.496 19.3771 17.648C18.9131 16.8 18.6811 15.768 18.6811 14.552V6.848H20.8411V14.264C20.8411 15.56 21.1691 16.56 21.8251 17.264C22.4811 17.952 23.3771 18.296 24.5131 18.296C25.6811 18.296 26.6011 17.936 27.2731 17.216C27.9451 16.496 28.2811 15.448 28.2811 14.072V6.848H30.4651ZM36.3367 2.24V20H34.1527V2.24H36.3367ZM41.1869 4.712C40.7709 4.712 40.4189 4.568 40.1309 4.28C39.8429 3.992 39.6989 3.64 39.6989 3.224C39.6989 2.808 39.8429 2.456 40.1309 2.168C40.4189 1.88 40.7709 1.736 41.1869 1.736C41.5869 1.736 41.9229 1.88 42.1949 2.168C42.4829 2.456 42.6269 2.808 42.6269 3.224C42.6269 3.64 42.4829 3.992 42.1949 4.28C41.9229 4.568 41.5869 4.712 41.1869 4.712ZM42.2429 6.848V20H40.0589V6.848H42.2429ZM45.1492 13.376C45.1492 12.032 45.4212 10.856 45.9652 9.848C46.5092 8.824 47.2532 8.032 48.1972 7.472C49.1572 6.912 50.2212 6.632 51.3892 6.632C52.5412 6.632 53.5412 6.88 54.3892 7.376C55.2372 7.872 55.8692 8.496 56.2852 9.248V6.848H58.4932V20H56.2852V17.552C55.8532 18.32 55.2052 18.96 54.3412 19.472C53.4932 19.968 52.5012 20.216 51.3652 20.216C50.1972 20.216 49.1412 19.928 48.1972 19.352C47.2532 18.776 46.5092 17.968 45.9652 16.928C45.4212 15.888 45.1492 14.704 45.1492 13.376ZM56.2852 13.4C56.2852 12.408 56.0852 11.544 55.6852 10.808C55.2852 10.072 54.7412 9.512 54.0532 9.128C53.3812 8.728 52.6372 8.528 51.8212 8.528C51.0052 8.528 50.2612 8.72 49.5892 9.104C48.9172 9.488 48.3812 10.048 47.9812 10.784C47.5812 11.52 47.3812 12.384 47.3812 13.376C47.3812 14.384 47.5812 15.264 47.9812 16.016C48.3812 16.752 48.9172 17.32 49.5892 17.72C50.2612 18.104 51.0052 18.296 51.8212 18.296C52.6372 18.296 53.3812 18.104 54.0532 17.72C54.7412 17.32 55.2852 16.752 55.6852 16.016C56.0852 15.264 56.2852 14.392 56.2852 13.4ZM28.664 27.608C29.688 27.608 30.6 27.824 31.4 28.256C32.2 28.672 32.832 29.304 33.296 30.152C33.76 31 33.992 32.032 33.992 33.248V41H31.832V33.56C31.832 32.248 31.504 31.248 30.848 30.56C30.208 29.856 29.336 29.504 28.232 29.504C27.096 29.504 26.192 29.872 25.52 30.608C24.848 31.328 24.512 32.376 24.512 33.752V41H22.352V33.56C22.352 32.248 22.024 31.248 21.368 30.56C20.728 29.856 19.856 29.504 18.752 29.504C17.616 29.504 16.712 29.872 16.04 30.608C15.368 31.328 15.032 32.376 15.032 33.752V41H12.848V27.848H15.032V29.744C15.464 29.056 16.04 28.528 16.76 28.16C17.496 27.792 18.304 27.608 19.184 27.608C20.288 27.608 21.264 27.856 22.112 28.352C22.96 28.848 23.592 29.576 24.008 30.536C24.376 29.608 24.984 28.888 25.832 28.376C26.68 27.864 27.624 27.608 28.664 27.608ZM49.5746 33.92C49.5746 34.336 49.5506 34.776 49.5026 35.24H38.9906C39.0706 36.536 39.5106 37.552 40.3106 38.288C41.1266 39.008 42.1106 39.368 43.2626 39.368C44.2066 39.368 44.9906 39.152 45.6146 38.72C46.2546 38.272 46.7026 37.68 46.9586 36.944H49.3106C48.9586 38.208 48.2546 39.24 47.1986 40.04C46.1426 40.824 44.8306 41.216 43.2626 41.216C42.0146 41.216 40.8946 40.936 39.9026 40.376C38.9266 39.816 38.1586 39.024 37.5986 38C37.0386 36.96 36.7586 35.76 36.7586 34.4C36.7586 33.04 37.0306 31.848 37.5746 30.824C38.1186 29.8 38.8786 29.016 39.8546 28.472C40.8466 27.912 41.9826 27.632 43.2626 27.632C44.5106 27.632 45.6146 27.904 46.5746 28.448C47.5346 28.992 48.2706 29.744 48.7826 30.704C49.3106 31.648 49.5746 32.72 49.5746 33.92ZM47.3186 33.464C47.3186 32.632 47.1346 31.92 46.7666 31.328C46.3986 30.72 45.8946 30.264 45.2546 29.96C44.6306 29.64 43.9346 29.48 43.1666 29.48C42.0626 29.48 41.1186 29.832 40.3346 30.536C39.5666 31.24 39.1266 32.216 39.0146 33.464H47.3186ZM58.8654 27.608C60.4654 27.608 61.7614 28.096 62.7534 29.072C63.7454 30.032 64.2414 31.424 64.2414 33.248V41H62.0814V33.56C62.0814 32.248 61.7534 31.248 61.0974 30.56C60.4414 29.856 59.5454 29.504 58.4094 29.504C57.2574 29.504 56.3374 29.864 55.6494 30.584C54.9774 31.304 54.6414 32.352 54.6414 33.728V41H52.4574V27.848H54.6414V29.72C55.0734 29.048 55.6574 28.528 56.3934 28.16C57.1454 27.792 57.9694 27.608 58.8654 27.608ZM66.9929 34.376C66.9929 33.032 67.2649 31.856 67.8089 30.848C68.3529 29.824 69.0969 29.032 70.0409 28.472C71.0009 27.912 72.0729 27.632 73.2569 27.632C74.2809 27.632 75.2329 27.872 76.1129 28.352C76.9929 28.816 77.6649 29.432 78.1289 30.2V23.24H80.3369V41H78.1289V38.528C77.6969 39.312 77.0569 39.96 76.2089 40.472C75.3609 40.968 74.3689 41.216 73.2329 41.216C72.0649 41.216 71.0009 40.928 70.0409 40.352C69.0969 39.776 68.3529 38.968 67.8089 37.928C67.2649 36.888 66.9929 35.704 66.9929 34.376ZM78.1289 34.4C78.1289 33.408 77.9289 32.544 77.5289 31.808C77.1289 31.072 76.5849 30.512 75.8969 30.128C75.2249 29.728 74.4809 29.528 73.6649 29.528C72.8489 29.528 72.1049 29.72 71.4329 30.104C70.7609 30.488 70.2249 31.048 69.8249 31.784C69.4249 32.52 69.2249 33.384 69.2249 34.376C69.2249 35.384 69.4249 36.264 69.8249 37.016C70.2249 37.752 70.7609 38.32 71.4329 38.72C72.1049 39.104 72.8489 39.296 73.6649 39.296C74.4809 39.296 75.2249 39.104 75.8969 38.72C76.5849 38.32 77.1289 37.752 77.5289 37.016C77.9289 36.264 78.1289 35.392 78.1289 34.4ZM96.0277 33.92C96.0277 34.336 96.0037 34.776 95.9557 35.24H85.4437C85.5237 36.536 85.9637 37.552 86.7637 38.288C87.5797 39.008 88.5637 39.368 89.7157 39.368C90.6597 39.368 91.4437 39.152 92.0677 38.72C92.7077 38.272 93.1557 37.68 93.4117 36.944H95.7637C95.4117 38.208 94.7077 39.24 93.6517 40.04C92.5957 40.824 91.2837 41.216 89.7157 41.216C88.4677 41.216 87.3477 40.936 86.3557 40.376C85.3797 39.816 84.6117 39.024 84.0517 38C83.4917 36.96 83.2117 35.76 83.2117 34.4C83.2117 33.04 83.4837 31.848 84.0277 30.824C84.5717 29.8 85.3317 29.016 86.3077 28.472C87.2997 27.912 88.4357 27.632 89.7157 27.632C90.9637 27.632 92.0677 27.904 93.0277 28.448C93.9877 28.992 94.7237 29.744 95.2357 30.704C95.7637 31.648 96.0277 32.72 96.0277 33.92ZM93.7717 33.464C93.7717 32.632 93.5877 31.92 93.2197 31.328C92.8517 30.72 92.3477 30.264 91.7077 29.96C91.0837 29.64 90.3877 29.48 89.6197 29.48C88.5157 29.48 87.5717 29.832 86.7877 30.536C86.0197 31.24 85.5797 32.216 85.4677 33.464H93.7717ZM103.567 41.216C102.559 41.216 101.655 41.048 100.855 40.712C100.055 40.36 99.4225 39.88 98.9585 39.272C98.4945 38.648 98.2385 37.936 98.1905 37.136H100.447C100.511 37.792 100.815 38.328 101.359 38.744C101.919 39.16 102.647 39.368 103.543 39.368C104.375 39.368 105.031 39.184 105.511 38.816C105.991 38.448 106.231 37.984 106.231 37.424C106.231 36.848 105.975 36.424 105.463 36.152C104.951 35.864 104.159 35.584 103.087 35.312C102.111 35.056 101.311 34.8 100.687 34.544C100.079 34.272 99.5505 33.88 99.1025 33.368C98.6705 32.84 98.4545 32.152 98.4545 31.304C98.4545 30.632 98.6545 30.016 99.0545 29.456C99.4545 28.896 100.023 28.456 100.759 28.136C101.495 27.8 102.335 27.632 103.279 27.632C104.735 27.632 105.911 28 106.807 28.736C107.703 29.472 108.183 30.48 108.247 31.76H106.063C106.015 31.072 105.735 30.52 105.223 30.104C104.727 29.688 104.055 29.48 103.207 29.48C102.423 29.48 101.799 29.648 101.335 29.984C100.871 30.32 100.639 30.76 100.639 31.304C100.639 31.736 100.775 32.096 101.047 32.384C101.335 32.656 101.687 32.88 102.103 33.056C102.535 33.216 103.127 33.4 103.879 33.608C104.823 33.864 105.591 34.12 106.183 34.376C106.775 34.616 107.279 34.984 107.695 35.48C108.127 35.976 108.351 36.624 108.367 37.424C108.367 38.144 108.167 38.792 107.767 39.368C107.367 39.944 106.799 40.4 106.063 40.736C105.343 41.056 104.511 41.216 103.567 41.216Z" fill="white"/>
<line x1="2" x2="2" y2="46" stroke="#5280E2" stroke-width="4"/>
</svg>
